# xmcd CD database file
#
# Track frame offsets:
#	150
#	15381
#	31811
#	47056
#	61277
#	80481
#	94246
#	105820
#	115808
#	138914
#	163273
#	181114
#	199798
#	230935
#	253939
#	267286
#	283055
#	299859
#	315506
#	340352
#
# Disc length: 4797 seconds
#
# Revision: 0
# Processed by: cddbd v1.4PL0 Copyright (c) Steve Scherf et al.
# Submitted via: CDex 1.51
#
DISCID=2512bb14
DTITLE=Wolfman - Moments In My Music
DYEAR=2002
DGENRE=Blues
TTITLE0=Games People Play
TTITLE1=End Of The Line
TTITLE2=Achy Breaky Heart
TTITLE3=Route 66
TTITLE4=The Thrill Is Gone
TTITLE5=Rock Your Baby
TTITLE6=Sweet Little 16
TTITLE7=Last Night
TTITLE8=Still Got The Blues
TTITLE9=I'm Just Your Fool
TTITLE10=Proud Mary
TTITLE11=Bebobalula
TTITLE12=As The Years Go Passing By
TTITLE13=Missunderstood
TTITLE14=Who's Been Talking
TTITLE15=Can Anyone Explain
TTITLE16=Fly Me To The Moon
TTITLE17=Shine
TTITLE18=Girl From Ipanema
TTITLE19=Gimme Some Lovin
EXTD=YEAR: 2002
EXTT0=
EXTT1=
EXTT2=
EXTT3=
EXTT4=
EXTT5=
EXTT6=
EXTT7=
EXTT8=
EXTT9=
EXTT10=
EXTT11=
EXTT12=
EXTT13=
EXTT14=
EXTT15=
EXTT16=
EXTT17=
EXTT18=
EXTT19=
PLAYORDER=
